<?xml version="1.0" encoding="UTF-8"?>
<svg id="a" data-name="Layer 1" xmlns="http://www.w3.org/2000/svg" width="200" height="200" viewBox="0 0 200 200">
  <rect y="0" width="200" height="200" fill="#fff" opacity="0"/>
  <path d="M122.7517,41.3148c.5231-27.8371-7.6912,24.5431-8.6756,14.2869" fill="none" stroke="#e5e5a5" stroke-linecap="round" stroke-miterlimit="10" stroke-width="2"/>
  <g>
    <path d="M59.3501,40.6971c-8.251-.9297-13.9316-1.7075-17.043-2.333-.3037,0-.6758-3.0093-1.1152-9.0283-.2881-2.6377-.4912-4.1929-.6094-4.6665-.9463,.0679-1.623,.1694-2.0283,.3047l-.1016-.2031c.0674-1.2681,.1016-2.2485,.1016-2.9419,.8281-.2871,1.4365-.5913,1.8262-.9131l-.8115-8.4194c.2021-.1689,.7773-.3716,1.7246-.6089v-.1011h-5.6807v-.1016c2.5859-3.0435,4.04-4.5649,4.3613-4.5649l23.332-.9131,.1016,.2031v6.0864c-.4736,.3721-2.6719,1.8262-6.5938,4.3618h-.2031l-.1016-1.2173v-3.9561c-2.2822,.0679-4.21,.1016-5.7822,.1016h-2.6377c.0508,4.4634,.1182,6.6948,.2031,6.6948,2.79-.8452,4.8184-1.4873,6.0869-1.9272l.1016,.2031v4.9702c0,.1865-1.4551,.4907-4.3623,.9131-1.2852,.2539-1.9277,.626-1.9277,1.1162-.0508,.1353-.1182,1.4199-.2031,3.8545,.0674,2.6885,.1016,4.6499,.1016,5.8838,.0674,.1182,.1016,.2197,.1016,.3042,1.5215,0,3.2803,.0342,5.2754,.1016v-8.4199c.0332-.1348,.1016-.2026,.2031-.2026,4.9023,1.8599,7.4385,2.9082,7.6074,3.1445,0,1.6572-.6084,5.7148-1.8262,12.1729-.0674,0-.1006,.0342-.1006,.1016Z" fill="#1f2e99"/>
    <path d="M78.2681,39.3782h-6.8975c-.1357,0-.2031-.0674-.2031-.2026V15.2351c.2197-.2363,1.1328-.6758,2.7393-1.3184v-.1016h-.1016c-5.918,.7441-9.1299,1.1157-9.6367,1.1157V6.1058c.0332-.1353,.1006-.2031,.2021-.2031h23.8389c.1357,.0342,.2031,.1016,.2031,.2031v5.7817c0,.1694-2.4688,.5073-7.4053,1.0146v.1016c-1.708,16.9404-2.6211,25.7324-2.7393,26.3745Z" fill="#1f2e99"/>
    <path d="M103.274,39.3782h-6.8975c-.1357,0-.2031-.0674-.2031-.2026V15.2351c.2197-.2363,1.1328-.6758,2.7393-1.3184v-.1016h-.1016c-5.918,.7441-9.1299,1.1157-9.6367,1.1157V6.1058c.0332-.1353,.1006-.2031,.2021-.2031h23.8389c.1357,.0342,.2031,.1016,.2031,.2031v5.7817c0,.1694-2.4688,.5073-7.4053,1.0146v.1016c-1.708,16.9404-2.6211,25.7324-2.7393,26.3745Z" fill="#1f2e99"/>
    <path d="M121.5845,39.3782h-7.2031l-.2021-.1011,3.7529-26.5781h4.666l.2031,.1016c-.6768,17.1777-1.082,26.0371-1.2168,26.5776Zm1.4199-27.7949c-3.3145-.5239-4.9707-.9634-4.9707-1.3188l-2.0293-3.5503c0-.2026,1.9277-.4058,5.7822-.6084,.1182-.0337,1.4375-.1689,3.9561-.4058l.1016,.2026c-1.2852,2.7729-2.2314,4.6665-2.8398,5.6807Z" fill="#1f2e99"/>
  </g>
  <g>
    <path d="M98.8658,197.0223h-7.2031l-.2021-.1011,3.7529-26.5781h4.666l.2031,.1016c-.6768,17.1777-1.082,26.0371-1.2168,26.5776Zm1.4199-27.7949c-3.3145-.5239-4.9707-.9634-4.9707-1.3188l-2.0293-3.5503c0-.2026,1.9277-.4058,5.7822-.6084,.1182-.0337,1.4375-.1689,3.9561-.4058l.1016,.2026c-1.2852,2.7729-2.2314,4.6665-2.8398,5.6807Z" fill="#1f2e99"/>
    <path d="M117.9869,197.0223h-6.8975c-.1357,0-.2031-.0674-.2031-.2026v-23.9404c.2197-.2363,1.1328-.6758,2.7393-1.3184v-.1016h-.1016c-5.918,.7441-9.1299,1.1157-9.6367,1.1157v-8.8252c.0332-.1353,.1006-.2031,.2021-.2031h23.8389c.1357,.0342,.2031,.1016,.2031,.2031v5.7817c0,.1694-2.4688,.5073-7.4053,1.0146v.1016c-1.708,16.9404-2.6211,25.7324-2.7393,26.3745Z" fill="#1f2e99"/>
  </g>
  <g>
    <path d="M66.1333,139.8103c-1.4033,11.8687-2.3672,18.6235-2.8906,20.2632-3.9395,.7271-9.1299,1.0903-15.5713,1.0903,.7773-2.6709,1.9863-5.3257,3.626-7.9629,.2373-.2368,.4824-.3555,.7354-.3555,4.582,0,6.873-.3633,6.873-1.0903l.3545-3.2715-.3545,.3804-7.6084,.355c-.1689,.4399-.4219,.9727-.7607,1.5977-.3379,.626-.9297,1.623-1.7754,2.9927-.8447,1.3696-1.5254,2.4644-2.041,3.2842-.5156,.8203-1.5254,2.4219-3.0312,4.8057l-10.8535-1.0903-1.8008-19.5527,.3545-.355c2.4521,.2026,4.7686,.4268,6.9492,.6719s3.7871,.4355,4.8184,.5708,1.5723,.2026,1.623,.2026c-1.877,3.7705-3.0771,6.061-3.6006,6.8726h-5.0723l1.0898,4.3369c1.2012,0,2.6465,.1265,4.3369,.3804,.5576-1.0146,2.7305-4.7593,6.5176-11.2349,.7275-.7266,1.8096-1.0903,3.2461-1.0903,.8457-.1689,1.8516-.3335,3.0186-.4946,1.166-.1606,2.2402-.2915,3.2207-.3931s2.3545-.2446,4.1211-.4312c1.7666-.186,3.2588-.3462,4.4756-.4819Z" fill="#1f2e99"/>
    <path d="M66.5396,137.097c-.0674,0-.1016,.0342-.1016,.1016l-.8115-.1016-27.6943-.4058c-.3379-.3887-.5742-.8281-.71-1.3188h-.1016l.1016,.71v2.2319c0,.2026-1.792,.4736-5.376,.8115-.1523-.7437-.5918-5.8159-1.3184-15.2163,1.4365-2.9077,2.2822-4.3618,2.5352-4.3618l11.2607-2.7393c4.3281,2.6885,6.4922,4.0747,6.4922,4.1592,1.8262,6.5601,2.8066,9.8398,2.9414,9.8398,6.8984,.1016,10.3477,.271,10.3477,.5073,0,.0508,.8115,1.978,2.4346,5.7822Zm-18.5645-6.5938c-1.3857-4.0742-2.2314-6.2725-2.5361-6.5938-.5068-.355-1.3525-1.0312-2.5361-2.0288-3.4482,1.0146-5.1729,1.6572-5.1729,1.9272,0,.1694-.2705,.5752-.8115,1.2173l.1016,.2031c0,.8623,.1348,2.4854,.4053,4.8691,5.208,.2705,8.7236,.4058,10.5498,.4058Z" fill="#1f2e99"/>
    <path d="M66.0318,116.0476h-.3545c-1.9609-.2705-4.1377-.5664-6.5303-.8877-2.3926-.3208-4.3584-.5874-5.8965-.7988s-3.208-.4395-5.0088-.6846-3.2627-.4438-4.3877-.5962c-1.124-.1519-2.2988-.3169-3.5244-.4946-1.2256-.1772-2.2021-.3169-2.9297-.4185-.7266-.1011-1.4199-.2026-2.0791-.3042-.6602-.1016-1.1543-.1855-1.4844-.2534-.3291-.0674-.5527-.1182-.6719-.1523l-1.0645-6.3652,17.6758-7.0757c.1016-.5239,.2119-.9932,.3301-1.4077,.1182-.4141,.2109-.6973,.2783-.8496l.1016-.228,4.9453-1.0649c-.084,.355-.1943,.7695-.3291,1.2427-.1357,.4731-.2324,.8325-.292,1.0776s-.0889,.4185-.0889,.52c.1689-.1689,.3594-.3848,.5703-.647,.2119-.2617,.3809-.4565,.5078-.583,.127-.127,.2402-.1904,.3418-.1904l8.4961-3.5249c0,.3042,.0342,.748,.1016,1.3311,.0674,.5835,.1611,1.4204,.2783,2.5107,.1191,1.0908,.2285,2.1685,.3301,3.2334,0,.1357-.5703,.3809-1.7119,.7358-1.1406,.355-3.1914,.9551-6.1494,1.8003-1.4717,.4229-2.6289,.7524-3.4746,.9893l-.3555,4.5903c4.1934,0,7.0723,.0171,8.6357,.0508s2.3457,.1353,2.3457,.3042l1.3945,8.1406Zm-16.9658-12.021l-8.4961,2.46c0,.2031,.0303,.3931,.0889,.5708,.0596,.1772,.123,.3086,.1904,.3931l.0762,.1016h2.9287c.6006,0,1.2812-.0127,2.042-.0381s1.3184-.0635,1.6738-.1143c.3545-.0508,.6172-.1182,.7861-.2026,.2363-.7104,.4736-1.7666,.71-3.1704Z" fill="#1f2e99"/>
    <path d="M66.438,71.3626l-.5078,16.2305-2.9414,2.8403c-14.6748,.4736-22.9932,.7104-24.9551,.7104-.3379-.9131-.5068-1.4204-.5068-1.522-.1348,0-.2031,.0679-.2031,.2031v3.2461c-.0332,.1353-1.6904,.541-4.9707,1.2173l-.1016-.2031v-21.5054c1.6738-1.9609,2.5537-2.9419,2.6377-2.9419h8.3184c.1689,0,.6768,2.4009,1.5215,7.2026l-.2031,.1011h-5.6807c-.4053,0-.9131,.0342-1.5215,.1016v2.8403c0,.7271,.0342,1.6401,.1016,2.7388,1.6914,0,9.0957-.0337,22.2158-.1011v-5.2749h-1.7246c-.8281,0-1.8428-.0337-3.043-.1016v3.1445c0,.1357-.0674,.2031-.2031,.2031h-5.2744v-.1016c.4219-5.1567,.8613-9.5522,1.3184-13.1875h3.9561c.1357,0,.2031,.0679,.2031,.2031v1.9272c0,.186,1.9268,.4902,5.7822,.9131,.1689,.0674,2.0625,.3721,5.6807,.9126l.1016,.2031Z" fill="#1f2e99"/>
    <path d="M67.148,44.1253l-1.8262,6.3911-13.1875-.8115,.6084,5.5791h12.2744c.2031,.085,.3047,.2876,.3047,.6089v3.8545c0,1.4204-.2031,2.1304-.6084,2.1304-4.7676,.2705-8.0811,.4058-9.9414,.4058-.1182,.0679-.2197,.1016-.3047,.1016-.5576-.8789-.8623-1.3188-.9131-1.3188,.7441,2.6211,1.1162,4.1084,1.1162,4.4634-.2871,0-1.3691,.3042-3.2461,.9131-.1348-.186-.5068-1.4707-1.1162-3.855l-18.665,.9131c0-.0674-.0332-.1016-.1016-.1016,1.2012-5.1055,1.877-7.811,2.0293-8.1152h4.1592c3.1104,0,6.7285-.0337,10.8535-.1016-.7607-3.8545-1.2676-5.7817-1.5215-5.7817l-.6084-.1016-13.6943-.4058-.1016-.2031v-6.5938l.1016-.2026c.2363,.0508,11.666,.7271,34.2871,2.0288l.1016,.2026Z" fill="#1f2e99"/>
  </g>
  <g>
    <path d="M130.1607,31.0057c1.4033-11.8687,2.3672-18.6235,2.8906-20.2632,3.9395-.7271,9.1299-1.0903,15.5713-1.0903-.7773,2.6709-1.9863,5.3257-3.626,7.9629-.2373,.2368-.4824,.3555-.7354,.3555-4.582,0-6.873,.3633-6.873,1.0903l-.3545,3.2715,.3545-.3804,7.6084-.355c.1689-.4399,.4219-.9727,.7607-1.5977,.3379-.626,.9297-1.623,1.7754-2.9927,.8447-1.3696,1.5254-2.4644,2.041-3.2842,.5156-.8203,1.5254-2.4219,3.0312-4.8057l10.8535,1.0903,1.8008,19.5527-.3545,.355c-2.4521-.2026-4.7686-.4268-6.9492-.6719s-3.7871-.4355-4.8184-.5708-1.5723-.2026-1.623-.2026c1.877-3.7705,3.0771-6.061,3.6006-6.8726h5.0723l-1.0898-4.3369c-1.2012,0-2.6465-.1265-4.3369-.3804-.5576,1.0146-2.7305,4.7593-6.5176,11.2349-.7275,.7266-1.8096,1.0903-3.2461,1.0903-.8457,.1689-1.8516,.3335-3.0186,.4946-1.166,.1606-2.2402,.2915-3.2207,.3931s-2.3545,.2446-4.1211,.4312c-1.7666,.186-3.2588,.3462-4.4756,.4819Z" fill="#1f2e99"/>
    <path d="M129.7544,33.719c.0674,0,.1016-.0342,.1016-.1016l.8115,.1016,27.6943,.4058c.3379,.3887,.5742,.8281,.71,1.3188h.1016l-.1016-.71v-2.2319c0-.2026,1.792-.4736,5.376-.8115,.1523,.7437,.5918,5.8159,1.3184,15.2163-1.4365,2.9077-2.2822,4.3618-2.5352,4.3618l-11.2607,2.7393c-4.3281-2.6885-6.4922-4.0747-6.4922-4.1592-1.8262-6.5601-2.8066-9.8398-2.9414-9.8398-6.8984-.1016-10.3477-.271-10.3477-.5073,0-.0508-.8115-1.978-2.4346-5.7822Zm18.5645,6.5938c1.3857,4.0742,2.2314,6.2725,2.5361,6.5938,.5068,.355,1.3525,1.0312,2.5361,2.0288,3.4482-1.0146,5.1729-1.6572,5.1729-1.9272,0-.1694,.2705-.5752,.8115-1.2173l-.1016-.2031c0-.8623-.1348-2.4854-.4053-4.8691-5.208-.2705-8.7236-.4058-10.5498-.4058Z" fill="#1f2e99"/>
    <path d="M130.2622,54.7683h.3545c1.9609,.2705,4.1377,.5664,6.5303,.8877,2.3926,.3208,4.3584,.5874,5.8965,.7988s3.208,.4395,5.0088,.6846,3.2627,.4438,4.3877,.5962c1.124,.1519,2.2988,.3169,3.5244,.4946,1.2256,.1772,2.2021,.3169,2.9297,.4185,.7266,.1011,1.4199,.2026,2.0791,.3042,.6602,.1016,1.1543,.1855,1.4844,.2534,.3291,.0674,.5527,.1182,.6719,.1523l1.0645,6.3652-17.6758,7.0757c-.1016,.5239-.2119,.9932-.3301,1.4077-.1182,.4141-.2109,.6973-.2783,.8496l-.1016,.228-4.9453,1.0649c.084-.355,.1943-.7695,.3291-1.2427,.1357-.4731,.2324-.8325,.292-1.0776s.0889-.4185,.0889-.52c-.1689,.1689-.3594,.3848-.5703,.647-.2119,.2617-.3809,.4565-.5078,.583-.127,.127-.2402,.1904-.3418,.1904l-8.4961,3.5249c0-.3042-.0342-.748-.1016-1.3311-.0674-.5835-.1611-1.4204-.2783-2.5107-.1191-1.0908-.2285-2.1685-.3301-3.2334,0-.1357,.5703-.3809,1.7119-.7358,1.1406-.355,3.1914-.9551,6.1494-1.8003,1.4717-.4229,2.6289-.7524,3.4746-.9893l.3555-4.5903c-4.1934,0-7.0723-.0171-8.6357-.0508s-2.3457-.1353-2.3457-.3042l-1.3945-8.1406Zm16.9658,12.021l8.4961-2.46c0-.2031-.0303-.3931-.0889-.5708-.0596-.1772-.123-.3086-.1904-.3931l-.0762-.1016h-2.9287c-.6006,0-1.2812,.0127-2.042,.0381s-1.3184,.0635-1.6738,.1143c-.3545,.0508-.6172,.1182-.7861,.2026-.2363,.7104-.4736,1.7666-.71,3.1704Z" fill="#1f2e99"/>
    <path d="M129.856,99.4534l.5078-16.2305,2.9414-2.8403c14.6748-.4736,22.9932-.7104,24.9551-.7104,.3379,.9131,.5068,1.4204,.5068,1.522,.1348,0,.2031-.0679,.2031-.2031v-3.2461c.0332-.1353,1.6904-.541,4.9707-1.2173l.1016,.2031v21.5054c-1.6738,1.9609-2.5537,2.9419-2.6377,2.9419h-8.3184c-.1689,0-.6768-2.4009-1.5215-7.2026l.2031-.1011h5.6807c.4053,0,.9131-.0342,1.5215-.1016v-2.8403c0-.7271-.0342-1.6401-.1016-2.7388-1.6914,0-9.0957,.0337-22.2158,.1011v5.2749h1.7246c.8281,0,1.8428,.0337,3.043,.1016v-3.1445c0-.1357,.0674-.2031,.2031-.2031h5.2744v.1016c-.4219,5.1567-.8613,9.5522-1.3184,13.1875h-3.9561c-.1357,0-.2031-.0679-.2031-.2031v-1.9272c0-.186-1.9268-.4902-5.7822-.9131-.1689-.0674-2.0625-.3721-5.6807-.9126l-.1016-.2031Z" fill="#1f2e99"/>
    <path d="M129.146,126.6907l1.8262-6.3911,13.1875,.8115-.6084-5.5791h-12.2744c-.2031-.085-.3047-.2876-.3047-.6089v-3.8545c0-1.4204,.2031-2.1304,.6084-2.1304,4.7676-.2705,8.0811-.4058,9.9414-.4058,.1182-.0679,.2197-.1016,.3047-.1016,.5576,.8789,.8623,1.3188,.9131,1.3188-.7441-2.6211-1.1162-4.1084-1.1162-4.4634,.2871,0,1.3691-.3042,3.2461-.9131,.1348,.186,.5068,1.4707,1.1162,3.855l18.665-.9131c0,.0674,.0332,.1016,.1016,.1016-1.2012,5.1055-1.877,7.811-2.0293,8.1152h-4.1592c-3.1104,0-6.7285,.0337-10.8535,.1016,.7607,3.8545,1.2676,5.7817,1.5215,5.7817l.6084,.1016,13.6943,.4058,.1016,.2031v6.5938l-.1016,.2026c-.2363-.0508-11.666-.7271-34.2871-2.0288l-.1016-.2026Z" fill="#1f2e99"/>
    <path d="M129.7544,151.5945c.9297-8.251,1.708-13.9316,2.334-17.0425,0-.3042,3.0088-.6763,9.0283-1.1157,2.6367-.2876,4.1924-.4907,4.666-.6089-.0684-.9468-.1689-1.623-.3047-2.0288l.2031-.1011c1.2676,.0674,2.248,.1011,2.9414,.1011,.2881,.8281,.5918,1.437,.9131,1.8262l8.4199-.8115c.1689,.2026,.3721,.7773,.6084,1.7246h.1016v-5.6807h.1016c3.043,2.5864,4.5645,4.0405,4.5645,4.3618l.9131,23.3315-.2021,.1016h-6.0869c-.3721-.4736-1.8262-2.6719-4.3623-6.5938v-.2031l1.2178-.1011h3.9561c-.0674-2.2827-.1016-4.21-.1016-5.7822v-2.6377c-4.4629,.0508-6.6953,.1182-6.6953,.2031,.8457,2.7896,1.4883,4.8184,1.9277,6.0864l-.2031,.1011h-4.9707c-.1855,0-.4902-1.4541-.9131-4.3618-.2529-1.2852-.625-1.9272-1.1152-1.9272-.1357-.0508-1.4209-.1187-3.8555-.2031-2.6875,.0674-4.6494,.1016-5.8828,.1016-.1191,.0674-.2207,.1016-.3047,.1016,0,1.5215-.0342,3.2798-.1016,5.2749h8.4199c.1348,.0337,.2031,.1016,.2031,.2026-1.8604,4.9033-2.9082,7.439-3.1455,7.6084-1.6562,0-5.7148-.6089-12.1729-1.8262,0-.0674-.0342-.1011-.1016-.1011Z" fill="#1f2e99"/>
    <path d="M131.0738,170.5135v-6.8984c0-.1353,.0674-.2026,.2031-.2026h23.9395c.2373,.2197,.6768,1.1323,1.3193,2.7388h.1016v-.1011c-.7441-5.918-1.1162-9.1299-1.1162-9.6372h8.8252c.1357,.0337,.2031,.1016,.2031,.2031v23.8384c-.0342,.1353-.1016,.2031-.2031,.2031h-5.7822c-.1689,0-.5068-2.4688-1.0137-7.4053h-.1016c-16.9414-1.708-25.7324-2.6206-26.375-2.7388Z" fill="#1f2e99"/>
  </g>
  <path d="M81.9803,69.406c-3.8984-19.0788-7.4092-39.9043-12.9324-45.2571" fill="none" stroke="#e5e5a5" stroke-linecap="round" stroke-miterlimit="10" stroke-width="2"/>
  <path d="M85.464,27.3356V63.0325" fill="none" stroke="#e5e5a5" stroke-linecap="round" stroke-miterlimit="10" stroke-width="2"/>
  <path d="M95.7459,20.204c-.4816,16.2888-4.3729,38.0675-2.0454,33.8681" fill="none" stroke="#e5e5a5" stroke-linecap="round" stroke-miterlimit="10" stroke-width="2"/>
  <path d="M100.9059,39.8311c-.3045-20.0812,3.1781,26.7958,2.6646,24.1922" fill="none" stroke="#e5e5a5" stroke-linecap="round" stroke-miterlimit="10" stroke-width="2"/>
  <path d="M89.1983,45.2363c-.3045-20.0812,3.1781,26.7958,2.6646,24.1922" fill="none" stroke="#e5e5a5" stroke-linecap="round" stroke-miterlimit="10" stroke-width="2"/>
  <path d="M109.2743,40.8326c.5231-27.8371-7.6912,24.5431-8.6756,14.2869" fill="none" stroke="#e5e5a5" stroke-linecap="round" stroke-miterlimit="10" stroke-width="2"/>
  <path d="M135.867,32.3319c-6.0398-11.6072-17.6631,36.4043-15.4874,32.0645" fill="none" stroke="#e5e5a5" stroke-linecap="round" stroke-miterlimit="10" stroke-width="2"/>
  <path d="M64.8942,45.7735c5.0206-11.9788,10.3723,14.5095,16.128,27.027" fill="none" stroke="#e5e5a5" stroke-linecap="round" stroke-miterlimit="10" stroke-width="2"/>
  <path d="M115.1027,30.9504c-.0527,6.3899-3.2712,20.8464-9.9133,34.8699" fill="none" stroke="#e5e5a5" stroke-linecap="round" stroke-miterlimit="10" stroke-width="2"/>
  <rect x="69.6723" y="55.4512" width="57.7213" height="106.6012" rx="4.3062" ry="4.3062" fill="#414cb7"/>
  <ellipse cx="86.9615" cy="93.2231" rx="9.3933" ry="15.5287" fill="#fff"/>
  <ellipse cx="91.0796" cy="100.7575" rx="3.6416" ry="4.6626"/>
  <ellipse cx="107.9263" cy="93.2231" rx="9.3933" ry="15.5287" fill="#fff"/>
  <ellipse cx="112.0444" cy="100.7575" rx="3.6416" ry="4.6626"/>
  <path d="M81.6956,133.1454c6.0269,12.592,26.8273,16.971,33.3958,1.6445,1.0948-4.379-1.0948-9.8528-5.4738-13.1371-4.379-2.1895-12.0423-2.1895-12.0423,4.379,1.0948,4.379,6.5685,0,8.758,3.2843,2.1895,4.379-2.1895,7.6633-5.4738,7.6633-12.0423,1.0948-13.1371-12.0423-8.6339-21.031" fill="none" fill-rule="evenodd" stroke="#1f2e99" stroke-linecap="round" stroke-miterlimit="10" stroke-width="6"/>
  <line x1="78.368" y1="71.4545" x2="92.5601" y2="71.4545" fill="none" stroke="#1f2e99" stroke-linecap="round" stroke-miterlimit="10" stroke-width="3.5"/>
  <polyline points="99.4918 70.1405 103.734 67.6913 105.6085 75.2317 116.3677 69.0199" fill="none" stroke="#1f2e99" stroke-linecap="round" stroke-linejoin="round" stroke-width="3"/>
  <path d="M77.3236,169.7216c.0214,.037,1.5069-.9153,1.5265-.8813,.1124,.1946-4.7832,7.8489-4.6469,8.0849,.0413,.0715,7.9027-4.6785,7.9529-4.5916,.1454,.2519-4.9758,8.6815-4.8324,8.9298,.0501,.0868,2.9069-1.7812,2.9514-1.704,.1175,.2035-3.0671,7.8287-2.9514,8.0291,.0501,.0868,2.9183-1.7774,2.9584-1.708,.1333,.2309-5.7994,9.1262-5.6641,9.3605,.0462,.08,5.6919-3.3776,5.7315-3.3091" fill="none" stroke="#414cb7" stroke-linecap="round" stroke-linejoin="round" stroke-width="3"/>
  <path d="M63.1693,167.8886c-.0405,.0234,1.0021,1.6496,.9648,1.6711-.2131,.123-8.5926-5.2362-8.8509-5.0871-.0783,.0452,5.1221,8.652,5.027,8.7069-.2758,.1592-9.5043-5.4476-9.7761-5.2907-.095,.0549,1.9507,3.1835,1.8662,3.2323-.2228,.1287-8.5711-3.3588-8.7905-3.2321-.0951,.0549,1.9469,3.1967,1.871,3.2406-.2528,.1459-9.992-6.3507-10.2485-6.2026-.0876,.0506,3.6992,6.2338,3.6241,6.2771" fill="none" stroke="#414cb7" stroke-linecap="round" stroke-linejoin="round" stroke-width="3"/>
</svg>