<?xml version="1.0" encoding="UTF-8"?>
<svg id="a" data-name="Layer 1" xmlns="http://www.w3.org/2000/svg" width="200" height="200" xmlns:xlink="http://www.w3.org/1999/xlink" viewBox="0 0 200 200">
  <defs>
    <clipPath id="b">
      <path d="M191.4583,185.0095l1.59,2.64H17.6783c-3.9-2.55-9.67-5.18-12.82-6.55,1.36-19.95,8.85-38.21,20.59-52.91,1.31,.84,3,1.09,5.02-.36,2.72-1.94,3.62-5.94,3.85-9.32,17.1-16.25,40.23-26.22,65.68-26.22,25.53,0,48.71,10.02,65.81,26.35l-1.04,5.39,6.34,.08c13.03,14.57,21.65,33.19,23.75,53.73l-2.14,1.45c-1.87,1.27-2.42,3.78-1.26,5.72Z" clip-rule="evenodd" fill="none"/>
    </clipPath>
  </defs>
  <rect width="200" height="200" fill="#fff" opacity="0"/>
  <path d="M32.8008,146.2388c-.9615-1.214-5.7828,2.6046-6.7443,1.3906-.961-1.2133-.4502-1.6178-1.4112-2.8311s-.5318-1.5541-1.4933-2.768-1.1968-1.0283-2.1587-2.2426c-.9598-1.2118-1.3173-.9286-2.2771-2.1404-.9611-1.2134-2.0247-.371-2.9858-1.5844-.9622-1.2148,2.6732-4.0941,1.711-5.3089s-2.665,.1337-3.6273-1.0813-2.4606-.0287-3.4232-1.2439c-.9641-1.2172,2.5786-4.0231,1.6145-5.2404s-.0367-1.3311-.7404-2.7152c-.6977-1.3722,.6088,.3595,.8405-1.5296,.1075-.8767-4.3336-2.5168-4.1627-3.6569,.1419-.9464,4.6557-1.2416,4.8467-2.3122,.1736-.9733-.0308-1.9868,.1873-3.0216,.2081-.9873-1.1297-2.2988-.8779-3.3074,.2482-.9942-.3757-2.226-.082-3.208,.298-.9962,2.5727-1.2792,2.9208-2.2291,.3632-.9913,2.5834-.9245,3.0046-1.8276,.4535-.9723-3.28-3.9697-2.7548-4.7933,.5878-.9217,.3603-2.8744,1.0438-3.5459,.7748-.7611,1.9937-1.051,2.7092-1.7197,.8053-.7527,.1879-3.0756,.9095-3.7141,.8458-.7484,5.6066,3.1838,6.3241,2.5875,.9229-.7671,1.2079-1.9463,1.8908-2.4713,1.5997-1.2297,.3638-2.0266,1.6605-2.8635" fill="none" stroke="#e5e5a5" stroke-linecap="round" stroke-miterlimit="10" stroke-width="4"/>
  <path d="M181.6923,154.7034c.6583-1.8135-12.2573-6.5021-11.5989-8.3156s2.5915-1.1128,3.2501-2.9272,4.5067-.4184,5.1657-2.2336-3.939-3.4843-3.28-5.2995,8.5099,1.0348,9.1689-.7805,1.6807-1.4437,2.3395-3.2584-5.5759-4.0783-4.9171-5.8932,3.0869-.9341,3.7459-2.7495c.6601-1.8184,1.0214-1.6872,1.6815-3.5055s2.0214-1.4934,2.0418-3.4277c.0207-1.9646,1.1852-2.5177,.5639-4.3816s5.1858-3.8005,4.5642-5.6652-11.0869,1.6237-11.7085-.241,6.2643-4.16,5.6428-6.0248-6.15-.0213-6.7714-1.8855,2.6297-2.9482,2.0082-4.8126-3.3624-.9513-3.9841-2.8163c-.6226-1.8679,4.7943-3.6736,4.1717-5.5415s-1.8507-1.4586-2.4734-3.3265" fill="none" stroke="#e5e5a5" stroke-linecap="round" stroke-miterlimit="10" stroke-width="4"/>
  <path d="M191.4583,185.0095l1.59,2.64H17.6783c-3.9-2.55-9.67-5.18-12.82-6.55,1.36-19.95,8.85-38.21,20.59-52.91,1.31,.84,3,1.09,5.02-.36,2.72-1.94,3.62-5.94,3.85-9.32,17.1-16.25,40.23-26.22,65.68-26.22,25.53,0,48.71,10.02,65.81,26.35l-1.04,5.39,6.34,.08c13.03,14.57,21.65,33.19,23.75,53.73l-2.14,1.45c-1.87,1.27-2.42,3.78-1.26,5.72Z" fill="#149941" fill-rule="evenodd"/>
  <ellipse cx="82.1967" cy="137.0778" rx="13.1813" ry="15.544" fill="#fff"/>
  <circle cx="87.2952" cy="138.5632" r="5.0984"/>
  <ellipse cx="115.0257" cy="137.0778" rx="13.1813" ry="15.544" fill="#fff"/>
  <circle cx="109.9272" cy="138.5632" r="5.0984"/>
  <line x1="70.6942" y1="110.0934" x2="92.3936" y2="115.5027" fill="none" stroke="#e2bf50" stroke-miterlimit="10" stroke-width="7"/>
  <line x1="130.0054" y1="110.0934" x2="108.306" y2="115.5027" fill="none" stroke="#e2bf50" stroke-miterlimit="10" stroke-width="7"/>
  <g>
    <path d="M20.9243,66.429c-.1475-.1958-.54-2.3042-1.1768-6.3257,.4648-.2944,1.9863-.7358,4.5605-1.3242,0-.5884-.3926-4.7075-1.1768-12.3579-.7852,0-1.5693,.0981-2.3545,.2944l-.1465-.2944c0-2.4517,.2939-3.6777,.8828-3.6777l1.3232-.2944c-.8818-7.7236-1.3232-13.0195-1.3232-15.8887,.1953-.0977,.3799-.1895,.5518-.2759,.1709-.0854,.3125-.1528,.4229-.2021,.1104-.0488,.208-.0918,.2939-.1284,.0859-.0371,.1475-.061,.1836-.0737,.0371-.0122,.0742-.0244,.1104-.0366,.0371-.0122,.0557-.0308,.0557-.0552v-.1104c-1.0059,.0981-1.8389,.147-2.501,.147h-1.9131c-.2939-.4414-1.0791-3.1382-2.3535-8.0913l.2939-.1475h25.4512c.5889,0,1.3242-.0488,2.207-.147,.2695,.3677,1.2012,2.5747,2.7949,6.6201-.1963,7.8467-.2939,12.0151-.2939,12.5049-.3682,.2207-1.4961,1.4961-3.3838,3.8252v.2944l2.3535,3.5308c-.7598,9.6118-1.25,15.0059-1.4707,16.1826-5.4189,3.9233-8.2148,5.8848-8.3857,5.8848h-13.9756l-1.0303,.147Zm9.71-26.3335c4.1924-1.1772,6.5469-1.9126,7.0615-2.207,.0488-.1958,.7354-.8828,2.0596-2.0596,0-.7847,.2451-2.7456,.7354-5.8848l-1.4707-4.1191h-9.2686c.4658,8.7046,.7598,13.4609,.8828,14.2705Zm1.1768,16.918c2.084,0,3.8984-.9312,5.4434-2.7949,.9805-.5884,1.4707-1.1768,1.4707-1.7656v-1.4712c0-1.3726,.0488-3.0894,.1475-5.1489-.123,0-.5645-.4414-1.3242-1.3242l-6.6201,.8828c.3916,6.3506,.5889,10.1758,.5889,11.4751l.2939,.147Z" fill="#274c2f"/>
    <path d="M52.9224,66.8704l1.9121-40.457c.9072-.7354,1.6924-1.3115,2.3535-1.7285,.1963-.1226,.2949-.2329,.2949-.3311h-.1475c-2.4521,.4907-4.6104,.7354-6.4727,.7354l-2.6484-7.9443c.1709-.0977,.3184-.147,.4414-.147,4.6094,0,10.7881-.0488,18.5361-.147l.1475,.2939-4.1191,40.1631c10.0283-2.1572,15.2754-3.2363,15.7412-3.2363,0,.6128-.4902,4.3892-1.4707,11.3276,0,.2456-8.1895,.7358-24.5684,1.4712Z" fill="#274c2f"/>
    <path d="M115.6675,68.1946c-22.6074-3.0894-34.4746-4.7568-35.6025-5.002l2.9424-45.459c0-.2207,8.1406-.7109,24.4209-1.4712,.417,1.8389,3.2119,19.1011,8.3857,51.7852-.0977,0-.1465,.0488-.1465,.147Zm-11.0342-13.5347v-.1475c-3.1875-14.8584-4.9043-23.0479-5.1494-24.5684-6.2275,1.1772-9.5137,1.7656-9.8564,1.7656v.147c1.2998,.123,2.2803,.3188,2.9424,.5884l-.1475,.5884c-.6865,10.6172-1.0293,17.2378-1.0293,19.8608l13.2402,1.7656Z" fill="#274c2f"/>
    <path d="M116.9184,66.429v-.5146c.3916-2.8442,.8213-6.001,1.2871-9.4707,.4658-3.4692,.8516-6.3198,1.1582-8.5513,.3066-2.231,.6377-4.6523,.9932-7.2637s.6436-4.7319,.8643-6.3628c.2207-1.6304,.46-3.3345,.7178-5.1123,.2568-1.7778,.46-3.1938,.6064-4.248,.1475-1.0542,.2939-2.0596,.4414-3.0161,.1475-.9561,.2695-1.6733,.3682-2.1514,.0977-.478,.1709-.8027,.2207-.9746l9.2314-1.5449,10.2617,25.6353c.7588,.147,1.4395,.3066,2.041,.478,.6006,.1719,1.0107,.3071,1.2314,.4048l.3311,.147,1.5449,7.1719c-.5146-.1226-1.1162-.2817-1.8018-.478-.6865-.1963-1.208-.3369-1.5635-.4229s-.6064-.1289-.7539-.1289c.2451,.2456,.5576,.521,.9375,.8276s.6621,.5518,.8467,.7354c.1836,.1841,.2754,.3496,.2754,.4966l5.1123,12.3213c-.4414,0-1.085,.0493-1.9307,.147-.8457,.0981-2.0596,.2334-3.6416,.4043-1.5811,.1719-3.1445,.3311-4.6895,.4785-.1963,0-.5508-.8276-1.0664-2.4829-.5146-1.6548-1.3857-4.6279-2.6113-8.9189-.6133-2.1333-1.0908-3.8125-1.4346-5.0386l-6.6562-.5151c0,6.0815-.0254,10.2559-.0742,12.5234-.0488,2.2681-.1963,3.4023-.4414,3.4023l-11.8057,2.0225Zm17.4336-24.605l-3.5684-12.3213c-.2939,0-.5693,.0435-.8271,.1289-.2578,.0859-.4473,.1782-.5703,.2759l-.1465,.1104v4.248c0,.8706,.0176,1.8574,.0547,2.9604,.0371,1.1035,.0918,1.9126,.166,2.4277,.0732,.5146,.1709,.895,.2939,1.1401,1.0293,.3433,2.5615,.6865,4.5977,1.0298Z" fill="#274c2f"/>
    <path d="M168.9233,65.2522h-10.0039c-.1963,0-.2939-.0977-.2939-.2944V30.2386c.3184-.3433,1.6416-.9805,3.9717-1.9126v-.147h-.1475c-8.582,1.0791-13.2402,1.6182-13.9756,1.6182v-12.7993c.0488-.1958,.1475-.2939,.2939-.2939h34.5723c.1963,.0493,.2949,.147,.2949,.2939v8.3857c0,.2456-3.5801,.7358-10.7402,1.4712v.147c-2.4766,24.5688-3.8008,37.3188-3.9717,38.2505Z" fill="#274c2f"/>
  </g>
  <path d="M70.6942,172.4783c4.7903,0,4.7903-6.2966,9.5805-6.2966s4.7915,6.9812,9.583,6.9812,4.7932-.5561,9.5863-.5561,4.7916-1.7137,9.5833-1.7137c4.7949,0,4.7949,1.6599,9.5899,1.6599s4.7949,.1546,9.5899,.1546" fill="none" stroke="#e2bf50" stroke-linecap="round" stroke-linejoin="round" stroke-width="7"/>
  <path d="M116.4145,90.1803v-10.9991c0-2.0017-1.6227-3.6244-3.6244-3.6244h-25.5802c-2.0017,0-3.6244,1.6227-3.6244,3.6244v10.9991h-25.2027c-2.4505,0-4.4371,1.9865-4.4371,4.4371h0s92.1085,0,92.1085,0h0c0-2.4505-1.9865-4.4371-4.4371-4.4371h-25.2027Z" fill="#274c2f" fill-rule="evenodd"/>
  <path d="M95,74.7043c0-1.9971,10-1.9971,10-3.9942s-10-1.9974-10-3.9948,10-1.9979,10-3.9958c0-2.0011-10-2.0011-10-4.0023s10-2.0011,10-4.0023" fill="none" stroke="#e5e5a5" stroke-miterlimit="10" stroke-width="4"/>
  <g clip-path="url(#b)">
    <g opacity=".2">
      <path d="M139.9386,149.7175c0-1.9268,.7832-2.9619,2.0615-2.9619s2.0615,1.0352,2.0615,2.9619c0,1.9082-.7832,2.9976-2.0615,2.9976s-2.0615-1.0894-2.0615-2.9976Zm3.4297,0c0-1.6567-.5674-2.3682-1.3682-2.3682-.8018,0-1.3691,.7114-1.3691,2.3682,0,1.6475,.5674,2.4033,1.3691,2.4033,.8008,0,1.3682-.7559,1.3682-2.4033Zm-1.9268-.0635c0-.3687,.2607-.5938,.5586-.5938,.2969,0,.5576,.2251,.5576,.5938,0,.3784-.2607,.6035-.5576,.6035-.2979,0-.5586-.2251-.5586-.6035Z" fill="#274c2f"/>
      <path d="M145.591,151.9948h1.6201v-4.231h-1.2334v-.4775c.6123-.0898,1.0625-.2339,1.4229-.4229h.5488v5.1313h1.4941v.6123h-3.8525v-.6123Z" fill="#274c2f"/>
      <path d="M150.7394,149.7175c0-1.9268,.7832-2.9619,2.0615-2.9619s2.0615,1.0352,2.0615,2.9619c0,1.9082-.7832,2.9976-2.0615,2.9976s-2.0615-1.0894-2.0615-2.9976Zm3.4297,0c0-1.6567-.5674-2.3682-1.3682-2.3682-.8018,0-1.3691,.7114-1.3691,2.3682,0,1.6475,.5674,2.4033,1.3691,2.4033,.8008,0,1.3682-.7559,1.3682-2.4033Zm-1.9268-.0635c0-.3687,.2607-.5938,.5586-.5938,.2969,0,.5576,.2251,.5576,.5938,0,.3784-.2607,.6035-.5576,.6035-.2979,0-.5586-.2251-.5586-.6035Z" fill="#274c2f"/>
      <path d="M156.1398,149.7175c0-1.9268,.7832-2.9619,2.0615-2.9619s2.0615,1.0352,2.0615,2.9619c0,1.9082-.7832,2.9976-2.0615,2.9976s-2.0615-1.0894-2.0615-2.9976Zm3.4297,0c0-1.6567-.5674-2.3682-1.3682-2.3682-.8018,0-1.3691,.7114-1.3691,2.3682,0,1.6475,.5674,2.4033,1.3691,2.4033,.8008,0,1.3682-.7559,1.3682-2.4033Zm-1.9268-.0635c0-.3687,.2607-.5938,.5586-.5938,.2969,0,.5576,.2251,.5576,.5938,0,.3784-.2607,.6035-.5576,.6035-.2979,0-.5586-.2251-.5586-.6035Z" fill="#274c2f"/>
      <path d="M161.7921,151.9948h1.6201v-4.231h-1.2334v-.4775c.6123-.0898,1.0625-.2339,1.4229-.4229h.5488v5.1313h1.4941v.6123h-3.8525v-.6123Z" fill="#274c2f"/>
      <path d="M166.9406,149.7175c0-1.9268,.7832-2.9619,2.0615-2.9619s2.0615,1.0352,2.0615,2.9619c0,1.9082-.7832,2.9976-2.0615,2.9976s-2.0615-1.0894-2.0615-2.9976Zm3.4297,0c0-1.6567-.5674-2.3682-1.3682-2.3682-.8018,0-1.3691,.7114-1.3691,2.3682,0,1.6475,.5674,2.4033,1.3691,2.4033,.8008,0,1.3682-.7559,1.3682-2.4033Zm-1.9268-.0635c0-.3687,.2607-.5938,.5586-.5938,.2969,0,.5576,.2251,.5576,.5938,0,.3784-.2607,.6035-.5576,.6035-.2979,0-.5586-.2251-.5586-.6035Z" fill="#274c2f"/>
      <path d="M172.5929,151.9948h1.6201v-4.231h-1.2334v-.4775c.6123-.0898,1.0625-.2339,1.4229-.4229h.5488v5.1313h1.4941v.6123h-3.8525v-.6123Z" fill="#274c2f"/>
      <path d="M177.7413,149.7175c0-1.9268,.7832-2.9619,2.0615-2.9619s2.0615,1.0352,2.0615,2.9619c0,1.9082-.7832,2.9976-2.0615,2.9976s-2.0615-1.0894-2.0615-2.9976Zm3.4297,0c0-1.6567-.5674-2.3682-1.3682-2.3682-.8018,0-1.3691,.7114-1.3691,2.3682,0,1.6475,.5674,2.4033,1.3691,2.4033,.8008,0,1.3682-.7559,1.3682-2.4033Zm-1.9268-.0635c0-.3687,.2607-.5938,.5586-.5938,.2969,0,.5576,.2251,.5576,.5938,0,.3784-.2607,.6035-.5576,.6035-.2979,0-.5586-.2251-.5586-.6035Z" fill="#274c2f"/>
      <path d="M183.1417,149.7175c0-1.9268,.7832-2.9619,2.0615-2.9619s2.0615,1.0352,2.0615,2.9619c0,1.9082-.7832,2.9976-2.0615,2.9976s-2.0615-1.0894-2.0615-2.9976Zm3.4297,0c0-1.6567-.5674-2.3682-1.3682-2.3682-.8018,0-1.3691,.7114-1.3691,2.3682,0,1.6475,.5674,2.4033,1.3691,2.4033,.8008,0,1.3682-.7559,1.3682-2.4033Zm-1.9268-.0635c0-.3687,.2607-.5938,.5586-.5938,.2969,0,.5576,.2251,.5576,.5938,0,.3784-.2607,.6035-.5576,.6035-.2979,0-.5586-.2251-.5586-.6035Z" fill="#274c2f"/>
      <path d="M188.7941,151.9948h1.6201v-4.231h-1.2334v-.4775c.6123-.0898,1.0625-.2339,1.4229-.4229h.5488v5.1313h1.4941v.6123h-3.8525v-.6123Z" fill="#274c2f"/>
      <path d="M193.9425,149.7175c0-1.9268,.7832-2.9619,2.0615-2.9619s2.0615,1.0352,2.0615,2.9619c0,1.9082-.7832,2.9976-2.0615,2.9976s-2.0615-1.0894-2.0615-2.9976Zm3.4297,0c0-1.6567-.5674-2.3682-1.3682-2.3682-.8018,0-1.3691,.7114-1.3691,2.3682,0,1.6475,.5674,2.4033,1.3691,2.4033,.8008,0,1.3682-.7559,1.3682-2.4033Zm-1.9268-.0635c0-.3687,.2607-.5938,.5586-.5938,.2969,0,.5576,.2251,.5576,.5938,0,.3784-.2607,.6035-.5576,.6035-.2979,0-.5586-.2251-.5586-.6035Z" fill="#274c2f"/>
      <path d="M199.3429,149.7175c0-1.9268,.7832-2.9619,2.0615-2.9619s2.0615,1.0352,2.0615,2.9619c0,1.9082-.7832,2.9976-2.0615,2.9976s-2.0615-1.0894-2.0615-2.9976Zm3.4297,0c0-1.6567-.5674-2.3682-1.3682-2.3682-.8018,0-1.3691,.7114-1.3691,2.3682,0,1.6475,.5674,2.4033,1.3691,2.4033,.8008,0,1.3682-.7559,1.3682-2.4033Zm-1.9268-.0635c0-.3687,.2607-.5938,.5586-.5938,.2969,0,.5576,.2251,.5576,.5938,0,.3784-.2607,.6035-.5576,.6035-.2979,0-.5586-.2251-.5586-.6035Z" fill="#274c2f"/>
      <path d="M139.9386,160.5177c0-1.9268,.7832-2.9619,2.0615-2.9619s2.0615,1.0352,2.0615,2.9619c0,1.9082-.7832,2.9976-2.0615,2.9976s-2.0615-1.0894-2.0615-2.9976Zm3.4297,0c0-1.6567-.5674-2.3677-1.3682-2.3677-.8018,0-1.3691,.7109-1.3691,2.3677,0,1.6475,.5674,2.4033,1.3691,2.4033,.8008,0,1.3682-.7559,1.3682-2.4033Zm-1.9268-.063c0-.3691,.2607-.5942,.5586-.5942,.2969,0,.5576,.2251,.5576,.5942,0,.3779-.2607,.603-.5576,.603-.2979,0-.5586-.2251-.5586-.603Z" fill="#274c2f"/>
      <path d="M145.591,162.7951h1.6201v-4.231h-1.2334v-.4775c.6123-.0898,1.0625-.2339,1.4229-.4229h.5488v5.1313h1.4941v.6123h-3.8525v-.6123Z" fill="#274c2f"/>
      <path d="M150.7394,160.5177c0-1.9268,.7832-2.9619,2.0615-2.9619s2.0615,1.0352,2.0615,2.9619c0,1.9082-.7832,2.9976-2.0615,2.9976s-2.0615-1.0894-2.0615-2.9976Zm3.4297,0c0-1.6567-.5674-2.3677-1.3682-2.3677-.8018,0-1.3691,.7109-1.3691,2.3677,0,1.6475,.5674,2.4033,1.3691,2.4033,.8008,0,1.3682-.7559,1.3682-2.4033Zm-1.9268-.063c0-.3691,.2607-.5942,.5586-.5942,.2969,0,.5576,.2251,.5576,.5942,0,.3779-.2607,.603-.5576,.603-.2979,0-.5586-.2251-.5586-.603Z" fill="#274c2f"/>
      <path d="M156.1398,160.5177c0-1.9268,.7832-2.9619,2.0615-2.9619s2.0615,1.0352,2.0615,2.9619c0,1.9082-.7832,2.9976-2.0615,2.9976s-2.0615-1.0894-2.0615-2.9976Zm3.4297,0c0-1.6567-.5674-2.3677-1.3682-2.3677-.8018,0-1.3691,.7109-1.3691,2.3677,0,1.6475,.5674,2.4033,1.3691,2.4033,.8008,0,1.3682-.7559,1.3682-2.4033Zm-1.9268-.063c0-.3691,.2607-.5942,.5586-.5942,.2969,0,.5576,.2251,.5576,.5942,0,.3779-.2607,.603-.5576,.603-.2979,0-.5586-.2251-.5586-.603Z" fill="#274c2f"/>
      <path d="M161.5402,160.5177c0-1.9268,.7832-2.9619,2.0615-2.9619s2.0615,1.0352,2.0615,2.9619c0,1.9082-.7832,2.9976-2.0615,2.9976s-2.0615-1.0894-2.0615-2.9976Zm3.4297,0c0-1.6567-.5674-2.3677-1.3682-2.3677-.8018,0-1.3691,.7109-1.3691,2.3677,0,1.6475,.5674,2.4033,1.3691,2.4033,.8008,0,1.3682-.7559,1.3682-2.4033Zm-1.9268-.063c0-.3691,.2607-.5942,.5586-.5942,.2969,0,.5576,.2251,.5576,.5942,0,.3779-.2607,.603-.5576,.603-.2979,0-.5586-.2251-.5586-.603Z" fill="#274c2f"/>
      <path d="M166.9406,160.5177c0-1.9268,.7832-2.9619,2.0615-2.9619s2.0615,1.0352,2.0615,2.9619c0,1.9082-.7832,2.9976-2.0615,2.9976s-2.0615-1.0894-2.0615-2.9976Zm3.4297,0c0-1.6567-.5674-2.3677-1.3682-2.3677-.8018,0-1.3691,.7109-1.3691,2.3677,0,1.6475,.5674,2.4033,1.3691,2.4033,.8008,0,1.3682-.7559,1.3682-2.4033Zm-1.9268-.063c0-.3691,.2607-.5942,.5586-.5942,.2969,0,.5576,.2251,.5576,.5942,0,.3779-.2607,.603-.5576,.603-.2979,0-.5586-.2251-.5586-.603Z" fill="#274c2f"/>
      <path d="M172.5929,162.7951h1.6201v-4.231h-1.2334v-.4775c.6123-.0898,1.0625-.2339,1.4229-.4229h.5488v5.1313h1.4941v.6123h-3.8525v-.6123Z" fill="#274c2f"/>
      <path d="M177.9933,162.7951h1.6201v-4.231h-1.2334v-.4775c.6123-.0898,1.0625-.2339,1.4229-.4229h.5488v5.1313h1.4941v.6123h-3.8525v-.6123Z" fill="#274c2f"/>
      <path d="M183.3937,162.7951h1.6201v-4.231h-1.2334v-.4775c.6123-.0898,1.0625-.2339,1.4229-.4229h.5488v5.1313h1.4941v.6123h-3.8525v-.6123Z" fill="#274c2f"/>
      <path d="M188.5421,160.5177c0-1.9268,.7832-2.9619,2.0615-2.9619s2.0615,1.0352,2.0615,2.9619c0,1.9082-.7832,2.9976-2.0615,2.9976s-2.0615-1.0894-2.0615-2.9976Zm3.4297,0c0-1.6567-.5674-2.3677-1.3682-2.3677-.8018,0-1.3691,.7109-1.3691,2.3677,0,1.6475,.5674,2.4033,1.3691,2.4033,.8008,0,1.3682-.7559,1.3682-2.4033Zm-1.9268-.063c0-.3691,.2607-.5942,.5586-.5942,.2969,0,.5576,.2251,.5576,.5942,0,.3779-.2607,.603-.5576,.603-.2979,0-.5586-.2251-.5586-.603Z" fill="#274c2f"/>
      <path d="M194.1945,162.7951h1.6201v-4.231h-1.2334v-.4775c.6123-.0898,1.0625-.2339,1.4229-.4229h.5488v5.1313h1.4941v.6123h-3.8525v-.6123Z" fill="#274c2f"/>
      <path d="M199.3429,160.5177c0-1.9268,.7832-2.9619,2.0615-2.9619s2.0615,1.0352,2.0615,2.9619c0,1.9082-.7832,2.9976-2.0615,2.9976s-2.0615-1.0894-2.0615-2.9976Zm3.4297,0c0-1.6567-.5674-2.3677-1.3682-2.3677-.8018,0-1.3691,.7109-1.3691,2.3677,0,1.6475,.5674,2.4033,1.3691,2.4033,.8008,0,1.3682-.7559,1.3682-2.4033Zm-1.9268-.063c0-.3691,.2607-.5942,.5586-.5942,.2969,0,.5576,.2251,.5576,.5942,0,.3779-.2607,.603-.5576,.603-.2979,0-.5586-.2251-.5586-.603Z" fill="#274c2f"/>
      <path d="M140.1906,173.5949h1.6201v-4.231h-1.2334v-.4775c.6123-.0898,1.0625-.2339,1.4229-.4229h.5488v5.1313h1.4941v.6123h-3.8525v-.6123Z" fill="#274c2f"/>
      <path d="M145.339,171.3176c0-1.9268,.7832-2.9619,2.0615-2.9619s2.0615,1.0352,2.0615,2.9619c0,1.9082-.7832,2.9976-2.0615,2.9976s-2.0615-1.0894-2.0615-2.9976Zm3.4297,0c0-1.6567-.5674-2.3677-1.3682-2.3677-.8018,0-1.3691,.7109-1.3691,2.3677,0,1.6475,.5674,2.4033,1.3691,2.4033,.8008,0,1.3682-.7559,1.3682-2.4033Zm-1.9268-.063c0-.3691,.2607-.5942,.5586-.5942,.2969,0,.5576,.2251,.5576,.5942,0,.3779-.2607,.603-.5576,.603-.2979,0-.5586-.2251-.5586-.603Z" fill="#274c2f"/>
      <path d="M150.7394,171.3176c0-1.9268,.7832-2.9619,2.0615-2.9619s2.0615,1.0352,2.0615,2.9619c0,1.9082-.7832,2.9976-2.0615,2.9976s-2.0615-1.0894-2.0615-2.9976Zm3.4297,0c0-1.6567-.5674-2.3677-1.3682-2.3677-.8018,0-1.3691,.7109-1.3691,2.3677,0,1.6475,.5674,2.4033,1.3691,2.4033,.8008,0,1.3682-.7559,1.3682-2.4033Zm-1.9268-.063c0-.3691,.2607-.5942,.5586-.5942,.2969,0,.5576,.2251,.5576,.5942,0,.3779-.2607,.603-.5576,.603-.2979,0-.5586-.2251-.5586-.603Z" fill="#274c2f"/>
      <path d="M156.3917,173.5949h1.6201v-4.231h-1.2334v-.4775c.6123-.0898,1.0625-.2339,1.4229-.4229h.5488v5.1313h1.4941v.6123h-3.8525v-.6123Z" fill="#274c2f"/>
      <path d="M161.5402,171.3176c0-1.9268,.7832-2.9619,2.0615-2.9619s2.0615,1.0352,2.0615,2.9619c0,1.9082-.7832,2.9976-2.0615,2.9976s-2.0615-1.0894-2.0615-2.9976Zm3.4297,0c0-1.6567-.5674-2.3677-1.3682-2.3677-.8018,0-1.3691,.7109-1.3691,2.3677,0,1.6475,.5674,2.4033,1.3691,2.4033,.8008,0,1.3682-.7559,1.3682-2.4033Zm-1.9268-.063c0-.3691,.2607-.5942,.5586-.5942,.2969,0,.5576,.2251,.5576,.5942,0,.3779-.2607,.603-.5576,.603-.2979,0-.5586-.2251-.5586-.603Z" fill="#274c2f"/>
      <path d="M166.9406,171.3176c0-1.9268,.7832-2.9619,2.0615-2.9619s2.0615,1.0352,2.0615,2.9619c0,1.9082-.7832,2.9976-2.0615,2.9976s-2.0615-1.0894-2.0615-2.9976Zm3.4297,0c0-1.6567-.5674-2.3677-1.3682-2.3677-.8018,0-1.3691,.7109-1.3691,2.3677,0,1.6475,.5674,2.4033,1.3691,2.4033,.8008,0,1.3682-.7559,1.3682-2.4033Zm-1.9268-.063c0-.3691,.2607-.5942,.5586-.5942,.2969,0,.5576,.2251,.5576,.5942,0,.3779-.2607,.603-.5576,.603-.2979,0-.5586-.2251-.5586-.603Z" fill="#274c2f"/>
      <path d="M172.5929,173.5949h1.6201v-4.231h-1.2334v-.4775c.6123-.0898,1.0625-.2339,1.4229-.4229h.5488v5.1313h1.4941v.6123h-3.8525v-.6123Z" fill="#274c2f"/>
      <path d="M177.7413,171.3176c0-1.9268,.7832-2.9619,2.0615-2.9619s2.0615,1.0352,2.0615,2.9619c0,1.9082-.7832,2.9976-2.0615,2.9976s-2.0615-1.0894-2.0615-2.9976Zm3.4297,0c0-1.6567-.5674-2.3677-1.3682-2.3677-.8018,0-1.3691,.7109-1.3691,2.3677,0,1.6475,.5674,2.4033,1.3691,2.4033,.8008,0,1.3682-.7559,1.3682-2.4033Zm-1.9268-.063c0-.3691,.2607-.5942,.5586-.5942,.2969,0,.5576,.2251,.5576,.5942,0,.3779-.2607,.603-.5576,.603-.2979,0-.5586-.2251-.5586-.603Z" fill="#274c2f"/>
      <path d="M183.3937,173.5949h1.6201v-4.231h-1.2334v-.4775c.6123-.0898,1.0625-.2339,1.4229-.4229h.5488v5.1313h1.4941v.6123h-3.8525v-.6123Z" fill="#274c2f"/>
      <path d="M188.5421,171.3176c0-1.9268,.7832-2.9619,2.0615-2.9619s2.0615,1.0352,2.0615,2.9619c0,1.9082-.7832,2.9976-2.0615,2.9976s-2.0615-1.0894-2.0615-2.9976Zm3.4297,0c0-1.6567-.5674-2.3677-1.3682-2.3677-.8018,0-1.3691,.7109-1.3691,2.3677,0,1.6475,.5674,2.4033,1.3691,2.4033,.8008,0,1.3682-.7559,1.3682-2.4033Zm-1.9268-.063c0-.3691,.2607-.5942,.5586-.5942,.2969,0,.5576,.2251,.5576,.5942,0,.3779-.2607,.603-.5576,.603-.2979,0-.5586-.2251-.5586-.603Z" fill="#274c2f"/>
      <path d="M194.1945,173.5949h1.6201v-4.231h-1.2334v-.4775c.6123-.0898,1.0625-.2339,1.4229-.4229h.5488v5.1313h1.4941v.6123h-3.8525v-.6123Z" fill="#274c2f"/>
      <path d="M199.3429,171.3176c0-1.9268,.7832-2.9619,2.0615-2.9619s2.0615,1.0352,2.0615,2.9619c0,1.9082-.7832,2.9976-2.0615,2.9976s-2.0615-1.0894-2.0615-2.9976Zm3.4297,0c0-1.6567-.5674-2.3677-1.3682-2.3677-.8018,0-1.3691,.7109-1.3691,2.3677,0,1.6475,.5674,2.4033,1.3691,2.4033,.8008,0,1.3682-.7559,1.3682-2.4033Zm-1.9268-.063c0-.3691,.2607-.5942,.5586-.5942,.2969,0,.5576,.2251,.5576,.5942,0,.3779-.2607,.603-.5576,.603-.2979,0-.5586-.2251-.5586-.603Z" fill="#274c2f"/>
      <path d="M139.9386,182.1178c0-1.9268,.7832-2.9619,2.0615-2.9619s2.0615,1.0352,2.0615,2.9619c0,1.9082-.7832,2.9976-2.0615,2.9976s-2.0615-1.0894-2.0615-2.9976Zm3.4297,0c0-1.6567-.5674-2.3682-1.3682-2.3682-.8018,0-1.3691,.7114-1.3691,2.3682,0,1.6475,.5674,2.4033,1.3691,2.4033,.8008,0,1.3682-.7559,1.3682-2.4033Zm-1.9268-.0635c0-.3687,.2607-.5938,.5586-.5938,.2969,0,.5576,.2251,.5576,.5938,0,.3784-.2607,.6035-.5576,.6035-.2979,0-.5586-.2251-.5586-.6035Z" fill="#274c2f"/>
      <path d="M145.339,182.1178c0-1.9268,.7832-2.9619,2.0615-2.9619s2.0615,1.0352,2.0615,2.9619c0,1.9082-.7832,2.9976-2.0615,2.9976s-2.0615-1.0894-2.0615-2.9976Zm3.4297,0c0-1.6567-.5674-2.3682-1.3682-2.3682-.8018,0-1.3691,.7114-1.3691,2.3682,0,1.6475,.5674,2.4033,1.3691,2.4033,.8008,0,1.3682-.7559,1.3682-2.4033Zm-1.9268-.0635c0-.3687,.2607-.5938,.5586-.5938,.2969,0,.5576,.2251,.5576,.5938,0,.3784-.2607,.6035-.5576,.6035-.2979,0-.5586-.2251-.5586-.6035Z" fill="#274c2f"/>
      <path d="M150.9913,184.3952h1.6201v-4.231h-1.2334v-.4775c.6123-.0898,1.0625-.2339,1.4229-.4229h.5488v5.1313h1.4941v.6123h-3.8525v-.6123Z" fill="#274c2f"/>
      <path d="M156.1398,182.1178c0-1.9268,.7832-2.9619,2.0615-2.9619s2.0615,1.0352,2.0615,2.9619c0,1.9082-.7832,2.9976-2.0615,2.9976s-2.0615-1.0894-2.0615-2.9976Zm3.4297,0c0-1.6567-.5674-2.3682-1.3682-2.3682-.8018,0-1.3691,.7114-1.3691,2.3682,0,1.6475,.5674,2.4033,1.3691,2.4033,.8008,0,1.3682-.7559,1.3682-2.4033Zm-1.9268-.0635c0-.3687,.2607-.5938,.5586-.5938,.2969,0,.5576,.2251,.5576,.5938,0,.3784-.2607,.6035-.5576,.6035-.2979,0-.5586-.2251-.5586-.6035Z" fill="#274c2f"/>
      <path d="M161.5402,182.1178c0-1.9268,.7832-2.9619,2.0615-2.9619s2.0615,1.0352,2.0615,2.9619c0,1.9082-.7832,2.9976-2.0615,2.9976s-2.0615-1.0894-2.0615-2.9976Zm3.4297,0c0-1.6567-.5674-2.3682-1.3682-2.3682-.8018,0-1.3691,.7114-1.3691,2.3682,0,1.6475,.5674,2.4033,1.3691,2.4033,.8008,0,1.3682-.7559,1.3682-2.4033Zm-1.9268-.0635c0-.3687,.2607-.5938,.5586-.5938,.2969,0,.5576,.2251,.5576,.5938,0,.3784-.2607,.6035-.5576,.6035-.2979,0-.5586-.2251-.5586-.6035Z" fill="#274c2f"/>
      <path d="M166.9406,182.1178c0-1.9268,.7832-2.9619,2.0615-2.9619s2.0615,1.0352,2.0615,2.9619c0,1.9082-.7832,2.9976-2.0615,2.9976s-2.0615-1.0894-2.0615-2.9976Zm3.4297,0c0-1.6567-.5674-2.3682-1.3682-2.3682-.8018,0-1.3691,.7114-1.3691,2.3682,0,1.6475,.5674,2.4033,1.3691,2.4033,.8008,0,1.3682-.7559,1.3682-2.4033Zm-1.9268-.0635c0-.3687,.2607-.5938,.5586-.5938,.2969,0,.5576,.2251,.5576,.5938,0,.3784-.2607,.6035-.5576,.6035-.2979,0-.5586-.2251-.5586-.6035Z" fill="#274c2f"/>
      <path d="M172.5929,184.3952h1.6201v-4.231h-1.2334v-.4775c.6123-.0898,1.0625-.2339,1.4229-.4229h.5488v5.1313h1.4941v.6123h-3.8525v-.6123Z" fill="#274c2f"/>
      <path d="M177.7413,182.1178c0-1.9268,.7832-2.9619,2.0615-2.9619s2.0615,1.0352,2.0615,2.9619c0,1.9082-.7832,2.9976-2.0615,2.9976s-2.0615-1.0894-2.0615-2.9976Zm3.4297,0c0-1.6567-.5674-2.3682-1.3682-2.3682-.8018,0-1.3691,.7114-1.3691,2.3682,0,1.6475,.5674,2.4033,1.3691,2.4033,.8008,0,1.3682-.7559,1.3682-2.4033Zm-1.9268-.0635c0-.3687,.2607-.5938,.5586-.5938,.2969,0,.5576,.2251,.5576,.5938,0,.3784-.2607,.6035-.5576,.6035-.2979,0-.5586-.2251-.5586-.6035Z" fill="#274c2f"/>
      <path d="M183.1417,182.1178c0-1.9268,.7832-2.9619,2.0615-2.9619s2.0615,1.0352,2.0615,2.9619c0,1.9082-.7832,2.9976-2.0615,2.9976s-2.0615-1.0894-2.0615-2.9976Zm3.4297,0c0-1.6567-.5674-2.3682-1.3682-2.3682-.8018,0-1.3691,.7114-1.3691,2.3682,0,1.6475,.5674,2.4033,1.3691,2.4033,.8008,0,1.3682-.7559,1.3682-2.4033Zm-1.9268-.0635c0-.3687,.2607-.5938,.5586-.5938,.2969,0,.5576,.2251,.5576,.5938,0,.3784-.2607,.6035-.5576,.6035-.2979,0-.5586-.2251-.5586-.6035Z" fill="#274c2f"/>
      <path d="M188.5421,182.1178c0-1.9268,.7832-2.9619,2.0615-2.9619s2.0615,1.0352,2.0615,2.9619c0,1.9082-.7832,2.9976-2.0615,2.9976s-2.0615-1.0894-2.0615-2.9976Zm3.4297,0c0-1.6567-.5674-2.3682-1.3682-2.3682-.8018,0-1.3691,.7114-1.3691,2.3682,0,1.6475,.5674,2.4033,1.3691,2.4033,.8008,0,1.3682-.7559,1.3682-2.4033Zm-1.9268-.0635c0-.3687,.2607-.5938,.5586-.5938,.2969,0,.5576,.2251,.5576,.5938,0,.3784-.2607,.6035-.5576,.6035-.2979,0-.5586-.2251-.5586-.6035Z" fill="#274c2f"/>
      <path d="M194.1945,184.3952h1.6201v-4.231h-1.2334v-.4775c.6123-.0898,1.0625-.2339,1.4229-.4229h.5488v5.1313h1.4941v.6123h-3.8525v-.6123Z" fill="#274c2f"/>
      <path d="M199.3429,182.1178c0-1.9268,.7832-2.9619,2.0615-2.9619s2.0615,1.0352,2.0615,2.9619c0,1.9082-.7832,2.9976-2.0615,2.9976s-2.0615-1.0894-2.0615-2.9976Zm3.4297,0c0-1.6567-.5674-2.3682-1.3682-2.3682-.8018,0-1.3691,.7114-1.3691,2.3682,0,1.6475,.5674,2.4033,1.3691,2.4033,.8008,0,1.3682-.7559,1.3682-2.4033Zm-1.9268-.0635c0-.3687,.2607-.5938,.5586-.5938,.2969,0,.5576,.2251,.5576,.5938,0,.3784-.2607,.6035-.5576,.6035-.2979,0-.5586-.2251-.5586-.6035Z" fill="#274c2f"/>
      <path d="M139.9386,192.9176c0-1.9268,.7832-2.9619,2.0615-2.9619s2.0615,1.0352,2.0615,2.9619c0,1.9082-.7832,2.9976-2.0615,2.9976s-2.0615-1.0894-2.0615-2.9976Zm3.4297,0c0-1.6567-.5674-2.3682-1.3682-2.3682-.8018,0-1.3691,.7114-1.3691,2.3682,0,1.6475,.5674,2.4033,1.3691,2.4033,.8008,0,1.3682-.7559,1.3682-2.4033Zm-1.9268-.0635c0-.3687,.2607-.5938,.5586-.5938,.2969,0,.5576,.2251,.5576,.5938,0,.3784-.2607,.6035-.5576,.6035-.2979,0-.5586-.2251-.5586-.6035Z" fill="#274c2f"/>
      <path d="M145.591,195.195h1.6201v-4.231h-1.2334v-.4775c.6123-.0898,1.0625-.2339,1.4229-.4229h.5488v5.1313h1.4941v.6123h-3.8525v-.6123Z" fill="#274c2f"/>
      <path d="M150.7394,192.9176c0-1.9268,.7832-2.9619,2.0615-2.9619s2.0615,1.0352,2.0615,2.9619c0,1.9082-.7832,2.9976-2.0615,2.9976s-2.0615-1.0894-2.0615-2.9976Zm3.4297,0c0-1.6567-.5674-2.3682-1.3682-2.3682-.8018,0-1.3691,.7114-1.3691,2.3682,0,1.6475,.5674,2.4033,1.3691,2.4033,.8008,0,1.3682-.7559,1.3682-2.4033Zm-1.9268-.0635c0-.3687,.2607-.5938,.5586-.5938,.2969,0,.5576,.2251,.5576,.5938,0,.3784-.2607,.6035-.5576,.6035-.2979,0-.5586-.2251-.5586-.6035Z" fill="#274c2f"/>
      <path d="M156.3917,195.195h1.6201v-4.231h-1.2334v-.4775c.6123-.0898,1.0625-.2339,1.4229-.4229h.5488v5.1313h1.4941v.6123h-3.8525v-.6123Z" fill="#274c2f"/>
      <path d="M161.5402,192.9176c0-1.9268,.7832-2.9619,2.0615-2.9619s2.0615,1.0352,2.0615,2.9619c0,1.9082-.7832,2.9976-2.0615,2.9976s-2.0615-1.0894-2.0615-2.9976Zm3.4297,0c0-1.6567-.5674-2.3682-1.3682-2.3682-.8018,0-1.3691,.7114-1.3691,2.3682,0,1.6475,.5674,2.4033,1.3691,2.4033,.8008,0,1.3682-.7559,1.3682-2.4033Zm-1.9268-.0635c0-.3687,.2607-.5938,.5586-.5938,.2969,0,.5576,.2251,.5576,.5938,0,.3784-.2607,.6035-.5576,.6035-.2979,0-.5586-.2251-.5586-.6035Z" fill="#274c2f"/>
      <path d="M167.1925,195.195h1.6201v-4.231h-1.2334v-.4775c.6123-.0898,1.0625-.2339,1.4229-.4229h.5488v5.1313h1.4941v.6123h-3.8525v-.6123Z" fill="#274c2f"/>
      <path d="M172.341,192.9176c0-1.9268,.7832-2.9619,2.0615-2.9619s2.0615,1.0352,2.0615,2.9619c0,1.9082-.7832,2.9976-2.0615,2.9976s-2.0615-1.0894-2.0615-2.9976Zm3.4297,0c0-1.6567-.5674-2.3682-1.3682-2.3682-.8018,0-1.3691,.7114-1.3691,2.3682,0,1.6475,.5674,2.4033,1.3691,2.4033,.8008,0,1.3682-.7559,1.3682-2.4033Zm-1.9268-.0635c0-.3687,.2607-.5938,.5586-.5938,.2969,0,.5576,.2251,.5576,.5938,0,.3784-.2607,.6035-.5576,.6035-.2979,0-.5586-.2251-.5586-.6035Z" fill="#274c2f"/>
      <path d="M177.7413,192.9176c0-1.9268,.7832-2.9619,2.0615-2.9619s2.0615,1.0352,2.0615,2.9619c0,1.9082-.7832,2.9976-2.0615,2.9976s-2.0615-1.0894-2.0615-2.9976Zm3.4297,0c0-1.6567-.5674-2.3682-1.3682-2.3682-.8018,0-1.3691,.7114-1.3691,2.3682,0,1.6475,.5674,2.4033,1.3691,2.4033,.8008,0,1.3682-.7559,1.3682-2.4033Zm-1.9268-.0635c0-.3687,.2607-.5938,.5586-.5938,.2969,0,.5576,.2251,.5576,.5938,0,.3784-.2607,.6035-.5576,.6035-.2979,0-.5586-.2251-.5586-.6035Z" fill="#274c2f"/>
      <path d="M183.3937,195.195h1.6201v-4.231h-1.2334v-.4775c.6123-.0898,1.0625-.2339,1.4229-.4229h.5488v5.1313h1.4941v.6123h-3.8525v-.6123Z" fill="#274c2f"/>
      <path d="M188.5421,192.9176c0-1.9268,.7832-2.9619,2.0615-2.9619s2.0615,1.0352,2.0615,2.9619c0,1.9082-.7832,2.9976-2.0615,2.9976s-2.0615-1.0894-2.0615-2.9976Zm3.4297,0c0-1.6567-.5674-2.3682-1.3682-2.3682-.8018,0-1.3691,.7114-1.3691,2.3682,0,1.6475,.5674,2.4033,1.3691,2.4033,.8008,0,1.3682-.7559,1.3682-2.4033Zm-1.9268-.0635c0-.3687,.2607-.5938,.5586-.5938,.2969,0,.5576,.2251,.5576,.5938,0,.3784-.2607,.6035-.5576,.6035-.2979,0-.5586-.2251-.5586-.6035Z" fill="#274c2f"/>
      <path d="M194.1945,195.195h1.6201v-4.231h-1.2334v-.4775c.6123-.0898,1.0625-.2339,1.4229-.4229h.5488v5.1313h1.4941v.6123h-3.8525v-.6123Z" fill="#274c2f"/>
      <path d="M199.3429,192.9176c0-1.9268,.7832-2.9619,2.0615-2.9619s2.0615,1.0352,2.0615,2.9619c0,1.9082-.7832,2.9976-2.0615,2.9976s-2.0615-1.0894-2.0615-2.9976Zm3.4297,0c0-1.6567-.5674-2.3682-1.3682-2.3682-.8018,0-1.3691,.7114-1.3691,2.3682,0,1.6475,.5674,2.4033,1.3691,2.4033,.8008,0,1.3682-.7559,1.3682-2.4033Zm-1.9268-.0635c0-.3687,.2607-.5938,.5586-.5938,.2969,0,.5576,.2251,.5576,.5938,0,.3784-.2607,.6035-.5576,.6035-.2979,0-.5586-.2251-.5586-.6035Z" fill="#274c2f"/>
    </g>
  </g>
</svg>